<svg width="110" height="62" viewBox="0 0 110 62" fill="none" xmlns="http://www.w3.org/2000/svg">
    <path
        d="M24.7388 48.8432V48.062C25.8702 48.062 26.6498 47.74 27.0837 47.102C27.5175 46.464 27.7285 45.3549 27.7285 43.7747V26.9235C27.7285 25.3075 27.5175 24.1865 27.0837 23.5544C26.6498 22.9224 25.876 22.6123 24.7388 22.6123V21.8252H36.9146C41.4128 21.8252 45.0103 23.139 47.7069 25.7667C49.0373 27.0511 50.0859 28.6069 50.784 30.3323C51.4821 32.0576 51.8139 33.9135 51.7577 35.7784C51.7577 39.7537 50.4797 42.924 47.9238 45.2893C45.3679 47.6546 41.8115 48.8392 37.2546 48.8432H24.7388ZM36.2052 22.8627H31.1989V42.8087C31.1989 44.7288 31.4275 46.0406 31.8731 46.7502C32.3186 47.4598 33.2214 47.8056 34.5697 47.8056H37.2839C40.5159 47.8056 43.0562 46.7363 44.9048 44.5976C46.7533 42.4589 47.6815 39.5371 47.6893 35.8321C47.6893 31.9005 46.6751 28.7561 44.6468 26.3988C42.6185 24.0414 39.8046 22.8627 36.2052 22.8627Z"
        fill="#0830A6"/>
    <path
        d="M65.5517 22.2837H66.4544V28.7595H65.4989C65.4249 27.9433 65.1863 27.1514 64.798 26.4332C64.4097 25.7151 63.88 25.086 63.242 24.5854C61.8378 23.5397 60.1271 23.008 58.3881 23.0768C56.911 23.0029 55.448 23.3989 54.2024 24.2098C53.711 24.5291 53.3073 24.9702 53.0294 25.4917C52.7515 26.0133 52.6085 26.5981 52.6138 27.1912C52.6183 28.3984 53.0901 29.5552 53.9269 30.4112C54.8062 31.3653 56.7036 32.5976 59.6191 34.1082C63.0114 35.8494 65.2898 37.3719 66.4544 38.6758C67.5882 39.8809 68.2186 41.486 68.2131 43.154C68.2126 44.2267 67.971 45.2852 67.5066 46.2484C67.0423 47.2116 66.3676 48.0541 65.5341 48.7114C63.7362 50.2608 61.4413 51.0842 59.0857 51.025C57.1905 50.9475 55.3157 50.5982 53.5166 49.9875C52.9467 49.7834 52.3572 49.6415 51.7579 49.5641C51.2303 49.5641 50.8199 49.9159 50.5268 50.6255H49.5654V43.1301H50.521C50.5026 44.0844 50.7054 45.0296 51.1127 45.8894C51.5201 46.7492 52.1206 47.4994 52.8659 48.0793C54.3972 49.3166 56.3037 49.9743 58.2591 49.9398C59.9252 50.0248 61.5727 49.5514 62.9488 48.5921C63.508 48.1883 63.961 47.6507 64.2677 47.0268C64.5744 46.4029 64.7254 45.7117 64.7075 45.0144C64.6854 44.41 64.5461 43.8159 64.2976 43.2664C64.0491 42.7169 63.6964 42.2227 63.2595 41.8123C62.2981 40.7867 60.2815 39.4748 57.2097 37.8589C55.4345 36.9957 53.756 35.9401 52.2034 34.7105C51.4082 34.0175 50.765 33.1622 50.3158 32.2001C49.914 31.2433 49.7143 30.2113 49.7296 29.1709C49.7046 28.177 49.9108 27.1912 50.3316 26.2938C50.7523 25.3964 51.3756 24.6128 52.1507 24.007C53.7647 22.6872 55.8654 22.0273 58.4525 22.0273C60.0281 22.0507 61.5928 22.2976 63.1013 22.7608C63.6361 22.9342 64.1889 23.0443 64.7485 23.0887C64.9321 23.1094 65.1166 23.0583 65.2644 22.9456C65.4059 22.7486 65.5039 22.5228 65.5517 22.2837Z"
        fill="#0830A6"/>
    <path
        d="M68.7111 61.7586C66.7023 62.3748 65.4419 61.8123 64.93 60.0711C64.5079 58.652 64.9964 55.3604 66.3955 50.1965C68.3183 43.4107 70.2841 36.613 72.2929 29.8033C72.1539 29.6632 71.9826 29.5607 71.7946 29.5052C71.6361 29.4549 71.4813 29.3932 71.3315 29.3204C70.4053 29.6006 69.2152 30.5726 67.738 32.2243C66.5589 33.504 65.4753 34.8713 64.4962 36.3149L63.3237 35.1223C65.3638 32.435 66.9661 30.4473 68.1307 29.1594C70.5538 26.5317 72.5587 24.9734 74.1454 24.4844C75.9861 23.9239 77.1585 24.4725 77.6627 26.1302C78.0769 27.5573 76.9045 32.6497 74.1454 41.4072C71.3862 50.1647 70.1356 54.9788 70.3935 55.8494C70.5577 56.402 70.9739 56.5749 71.6422 56.3682C72.6505 56.066 73.8894 55.0007 75.3588 53.172C76.033 52.367 77.0061 51.0373 78.2899 49.1769L79.4624 50.3695C78.0407 52.6267 76.474 54.786 74.7726 56.8333C72.4903 59.5802 70.4698 61.222 68.7111 61.7586Z"
        fill="#0830A6"/>
    <path
        d="M108.996 19.3563C108.369 17.156 104.635 16.0409 98.7903 15.8978H98.8196H98.8958H99.0365C99.1419 15.8915 99.2476 15.8915 99.3531 15.8978H99.4293C99.5568 15.8984 99.6842 15.9084 99.8103 15.9277H100.057C100.182 15.9282 100.308 15.9382 100.432 15.9575H100.567L100.719 15.9873C100.833 15.9989 100.947 16.0168 101.059 16.0409C101.221 16.0436 101.383 16.0656 101.54 16.1065C101.69 16.1231 101.84 16.1531 101.985 16.196C102.08 16.2051 102.174 16.221 102.267 16.2437C102.532 16.2911 102.795 16.3448 103.058 16.4047C103.779 16.4663 104.479 16.6844 105.11 17.0444C105.741 17.4045 106.288 17.898 106.716 18.4917C106.946 18.8959 107.051 19.3612 107.018 19.827C106.985 20.2928 106.814 20.7376 106.528 21.1035C106.388 21.4353 106.189 21.7383 105.942 21.9979C105.813 22.2392 105.64 22.4536 105.432 22.63C105.372 22.7 105.308 22.7657 105.239 22.8267C105.095 23.0583 104.91 23.2605 104.694 23.423C104.582 23.5749 104.45 23.7095 104.301 23.8226C103.902 24.3126 103.436 24.7423 102.917 25.0986C101.416 26.4825 99.7471 27.6666 97.952 28.6227C97.845 28.694 97.7311 28.754 97.612 28.8016H97.5592C97.4222 28.903 97.2748 28.9889 97.1196 29.058C95.618 30.0002 94.0505 30.8293 92.4298 31.5386H92.3946C92.2445 31.6263 92.0899 31.706 91.9315 31.7771H91.8905C91.4801 31.9679 91.0756 32.1587 90.6653 32.3316L90.9877 32.1945L90.5656 32.4032C90.5172 32.4423 90.4663 32.4782 90.4132 32.5105C90.2256 32.6059 90.0322 32.6894 89.827 32.7729C89.7441 32.828 89.6557 32.874 89.5632 32.91C89.4728 32.9609 89.3787 33.0048 89.2818 33.0412C89.1887 33.089 89.0928 33.1309 88.9946 33.1665H88.9535C88.94 33.1697 88.926 33.1697 88.9125 33.1665H88.8597C88.7495 33.2308 88.6338 33.2847 88.5139 33.3275L88.4435 33.3632L88.3087 33.4288L88.2207 33.4885C87.5592 33.8276 86.8756 34.1205 86.1748 34.365C85.9474 34.5358 85.6881 34.6576 85.4127 34.7228C85.3298 34.7724 85.2436 34.8162 85.1548 34.854C84.972 34.9596 84.7743 35.036 84.5686 35.0805C84.4298 35.1683 84.2799 35.2365 84.1231 35.2833C84.0513 35.3192 83.9768 35.3491 83.9003 35.3727C83.7852 35.4396 83.6633 35.4935 83.5368 35.5337C83.4196 35.5912 83.2981 35.639 83.1734 35.6768H83.1382C82.9726 35.7806 82.7928 35.8589 82.6048 35.9094C82.4492 35.9953 82.2838 36.0614 82.1123 36.1062C82.0291 36.15 81.9429 36.1879 81.8544 36.2195C81.7204 36.2928 81.5789 36.3508 81.4323 36.3924C81.2826 36.4733 81.1256 36.5392 80.9633 36.5892L80.764 36.6607L80.5354 36.7442C80.4301 36.7996 80.3203 36.8455 80.2071 36.8813C80.1315 36.9193 80.0531 36.9512 79.9726 36.9768C79.8653 37.0396 79.7512 37.0896 79.6326 37.1258C79.45 37.2319 79.2522 37.3084 79.0464 37.3524L78.8881 37.4121L78.7181 37.4836C78.5364 37.5942 78.3385 37.6747 78.1319 37.7221C77.8574 37.8229 77.5838 37.9262 77.3112 38.0322C77.2298 38.0741 77.1455 38.1099 77.0591 38.1395C76.94 38.1989 76.8165 38.2488 76.6898 38.2886C76.5294 38.3761 76.3577 38.4403 76.1798 38.4794C76.0718 38.5269 75.96 38.5648 75.8456 38.5927L75.7518 38.6285C75.6726 38.6674 75.5902 38.6994 75.5056 38.7239H75.4529C75.2692 38.8265 75.0717 38.9008 74.8666 38.9445C74.6818 39.0443 74.4846 39.1185 74.2804 39.1651C74.1481 39.2222 74.0107 39.2661 73.8701 39.2963C73.686 39.3941 73.4883 39.4625 73.2838 39.4991C73.1006 39.5998 72.9027 39.6703 72.6976 39.7078L72.5686 39.7734C72.2454 39.8827 71.9249 40 71.6072 40.1252C71.4588 40.1937 71.3036 40.2457 71.1441 40.2802L70.9272 40.3458C70.7298 40.4643 70.5135 40.547 70.2883 40.5903C70.1855 40.6372 70.0797 40.677 69.9717 40.7095L69.7372 40.793C69.55 40.8764 69.353 40.9345 69.151 40.9659H69.1041C68.993 41.0204 68.8772 41.0643 68.7582 41.0971H68.682H68.6351C68.368 41.2043 68.0938 41.292 67.8144 41.3595C67.61 41.4741 67.388 41.5528 67.1578 41.5921C66.9878 41.6696 66.8084 41.7237 66.6244 41.7531C66.5121 41.7966 66.3964 41.8306 66.2785 41.8544C66.1437 41.9243 66.0023 41.9803 65.8564 42.0214C65.6701 42.1121 65.4731 42.1782 65.2702 42.2182C65.0846 42.3108 64.8873 42.377 64.684 42.4149H64.6078C64.2671 42.5285 63.9251 42.6378 63.5819 42.7429C63.3942 42.8249 63.1973 42.883 62.9957 42.9158L62.8315 42.9755C62.6604 43.0579 62.4789 43.116 62.2922 43.1484C62.126 43.2239 61.9505 43.2761 61.7705 43.3034C61.7001 43.3034 61.6181 43.3511 61.5418 43.375C61.383 43.451 61.2157 43.507 61.0436 43.5419C60.8044 43.663 60.5467 43.7417 60.2815 43.7745L60.1877 43.8103C60.0114 43.8887 59.8263 43.9448 59.6366 43.9772C59.4199 44.0798 59.1883 44.1463 58.9507 44.174C58.7239 44.2861 58.4802 44.3587 58.2297 44.3887C58.0962 44.4494 57.9566 44.4954 57.8135 44.5258C57.7186 44.5676 57.6206 44.6015 57.5204 44.6272C57.3324 44.7071 57.1356 44.7632 56.9341 44.7941C56.8261 44.8243 56.7165 44.8482 56.6059 44.8657C56.4608 44.9208 56.3119 44.9647 56.1603 44.9969C55.9607 45.0865 55.7495 45.1467 55.5331 45.1758C55.4231 45.2201 55.3092 45.2541 55.1931 45.2771C54.9871 45.371 54.7672 45.4294 54.5424 45.4501C54.381 45.5181 54.2114 45.5642 54.0382 45.5872L53.8682 45.6468C53.6665 45.7364 53.4533 45.7966 53.2351 45.8257C53.096 45.8748 52.9527 45.9107 52.8072 45.9331C52.6021 46.0329 52.3822 46.0974 52.1564 46.1239C51.9595 46.2143 51.7498 46.2726 51.5351 46.2968C51.3901 46.3478 51.241 46.3857 51.0895 46.4101C50.9785 46.453 50.8649 46.4888 50.7495 46.5174C50.6249 46.5556 50.4975 46.5835 50.3685 46.6009C50.223 46.6594 50.0716 46.7014 49.9171 46.7261C49.8731 46.7416 49.828 46.7535 49.7823 46.7619C49.6406 46.8184 49.4931 46.8584 49.3426 46.8812C47.9024 47.4666 46.4209 47.941 44.9108 48.3003C44.8231 48.3293 44.7327 48.3493 44.6411 48.36C44.525 48.399 44.4051 48.425 44.2835 48.4375H44.2249C44.1202 48.4783 44.0123 48.5102 43.9025 48.5329C43.8354 48.553 43.7668 48.567 43.6973 48.5746C43.5548 48.6361 43.405 48.6782 43.2518 48.6999C43.157 48.7374 43.0588 48.7654 42.9587 48.7833L42.5835 48.8609C42.4458 48.9052 42.3046 48.9371 42.1614 48.9563C42.0348 48.9944 41.9054 49.0223 41.7745 49.0397H41.6455C41.507 49.0896 41.3635 49.1236 41.2176 49.1411C41.0841 49.1861 40.9467 49.2181 40.8072 49.2365C40.6564 49.2841 40.5012 49.3161 40.3441 49.3319C40.2232 49.3675 40.0997 49.3934 39.9748 49.4094H39.84C39.7045 49.4544 39.5651 49.4864 39.4237 49.5048C39.3488 49.525 39.2723 49.539 39.1951 49.5466C39.1424 49.5499 39.0895 49.5499 39.0368 49.5466C38.9841 49.5466 38.9196 49.5466 38.8668 49.5824C38.6978 49.6416 38.5228 49.6816 38.3451 49.7016C37.9523 49.7911 37.5537 49.8865 37.1727 49.9521H37.1375L36.903 50.0892C36.7624 50.1376 36.6169 50.1697 36.4692 50.1846L36.2406 50.2264C36.1344 50.2545 36.0268 50.2764 35.9181 50.292H35.8361C35.6635 50.352 35.4843 50.39 35.3026 50.4053C35.1814 50.4368 35.0579 50.4587 34.9333 50.4708C34.8747 50.4708 34.816 50.4708 34.7574 50.5066C34.661 50.5313 34.5631 50.5492 34.4643 50.5603H34.3295C34.1896 50.6012 34.0464 50.6292 33.9015 50.6438H33.7198C33.563 50.6916 33.402 50.7235 33.2391 50.7392C33.1029 50.7776 32.9636 50.8035 32.8229 50.8167C32.7073 50.8456 32.5897 50.8656 32.4712 50.8763L32.1839 50.936H32.0432C31.8728 50.983 31.6979 51.011 31.5215 51.0194C31.3102 51.0775 31.0945 51.1174 30.8766 51.1387C30.7247 51.1776 30.5697 51.2035 30.4135 51.2162L30.2318 51.2579H30.0383H29.9328C29.6637 51.3162 29.3917 51.36 29.118 51.3891C29.0476 51.3891 28.9656 51.3891 28.8894 51.4249C28.7869 51.4491 28.6832 51.467 28.5787 51.4786C28.482 51.4992 28.3841 51.5131 28.2855 51.5203H28.0921H27.9749L27.7697 51.5561H27.6759H27.6348H27.4883C27.4395 51.5594 27.3905 51.5594 27.3417 51.5561H27.2597C27.15 51.5836 27.0382 51.6016 26.9255 51.6098C26.8195 51.6348 26.7117 51.6508 26.6031 51.6575C26.451 51.6947 26.2961 51.7186 26.14 51.729H26.0403L25.8351 51.7648C25.7285 51.7832 25.6208 51.7952 25.5127 51.8006C25.4639 51.8035 25.415 51.8035 25.3662 51.8006C25.2634 51.819 25.1597 51.831 25.0555 51.8364H25.0144C24.8891 51.8658 24.7617 51.8858 24.6334 51.896H24.3403C24.2436 51.9166 24.1457 51.9305 24.0472 51.9377C23.9847 51.9409 23.9221 51.9409 23.8596 51.9377C23.7477 51.9632 23.634 51.9791 23.5196 51.9854C23.3881 52.01 23.2546 52.0219 23.1209 52.0212C22.984 52.0515 22.8448 52.0695 22.7047 52.0749H22.5992H22.394C22.2453 52.1055 22.0943 52.1235 21.9426 52.1285C21.7902 52.16 21.6351 52.176 21.4795 52.1762C21.3365 52.2045 21.1914 52.2205 21.0457 52.2239C20.8933 52.2554 20.7382 52.2714 20.5826 52.2716H20.5357C20.4193 52.2921 20.3019 52.3061 20.184 52.3134H20.0492C19.9173 52.3347 19.784 52.3467 19.6505 52.3492H19.5098C19.4336 52.3492 19.3574 52.3492 19.2753 52.3492H19.0233C18.8905 52.3585 18.7574 52.3585 18.6246 52.3492C18.0384 52.4148 17.4522 52.4505 16.8308 52.4684C16.6724 52.4999 16.5115 52.5159 16.3501 52.5161C15.7444 52.5784 15.135 52.5943 14.5269 52.5638H14.2983C14.1948 52.5699 14.0911 52.5699 13.9876 52.5638H13.7121H13.6593C13.1985 52.5877 12.7367 52.5877 12.2759 52.5638C12.1645 52.5638 11.8303 52.5638 11.7776 52.5638H11.5665C11.4703 52.5598 11.3744 52.5498 11.2793 52.534H11.1151C11.0097 52.5404 10.904 52.5404 10.7986 52.534H10.652H10.482H10.3531C10.2095 52.5328 10.0663 52.5188 9.92512 52.4923H9.80787C9.66626 52.4908 9.52504 52.4768 9.3858 52.4505H9.31545C9.13822 52.4516 8.96137 52.4336 8.78785 52.3969C8.72337 52.3969 8.65302 52.3969 8.5944 52.3969H8.44784C8.38336 52.3969 8.32474 52.3969 8.26025 52.3611C8.14775 52.3548 8.03596 52.3389 7.92611 52.3134C7.69286 52.3092 7.4616 52.269 7.24023 52.1941H7.09954H6.99402H6.83574C6.69273 52.177 6.55149 52.1471 6.41366 52.1047C6.30632 52.082 6.20057 52.0521 6.0971 52.0152H6.03261C5.89696 52.1057 5.75137 52.1798 5.59881 52.2359C5.46977 52.2077 5.34401 52.1657 5.22363 52.1106C5.06249 52.0683 4.90699 52.0062 4.76052 51.9258C4.53228 51.8644 4.31614 51.7636 4.12153 51.6277C3.98839 51.5588 3.86095 51.479 3.74049 51.3891C3.6876 51.3565 3.6367 51.3207 3.58807 51.2818C3.30258 51.1144 3.0612 50.8791 2.88461 50.5961C2.73066 50.379 2.61374 50.1371 2.53874 49.8805C2.53643 49.8567 2.53643 49.8328 2.53874 49.809C2.40011 49.2035 2.48349 48.5674 2.77323 48.0201C2.89787 47.6979 3.0592 47.3917 3.25393 47.1078C3.3395 46.9502 3.44386 46.804 3.56463 46.6725C3.63436 46.5646 3.71279 46.4629 3.79911 46.3684C3.91665 46.1928 4.04801 46.0273 4.19188 45.8734C4.31341 45.7101 4.45756 45.5655 4.61982 45.4441L4.75465 45.3248C4.83332 45.2321 4.91961 45.1463 5.01259 45.0684L5.15915 44.9373C5.22038 44.8609 5.287 44.7891 5.35846 44.7226C5.41874 44.6621 5.4834 44.6063 5.55191 44.5556C5.64441 44.4537 5.74874 44.3636 5.86261 44.2873C5.90563 44.2284 5.95476 44.1744 6.00916 44.1263L6.08537 44.0607C6.20975 43.9245 6.35174 43.8062 6.50745 43.7089L6.67746 43.5837C6.76848 43.4924 6.86649 43.4087 6.97057 43.3332L7.01746 43.2855C2.66771 46.4101 0.404896 49.1888 1.00284 51.2818C2.7615 57.4296 28.3559 55.271 58.1828 46.4578C88.0097 37.6446 110.755 25.5041 108.996 19.3563Z"
        fill="#0830A6"/>
    <mask id="mask0_1182_2247" style="mask-type:luminance" maskUnits="userSpaceOnUse" x="69" y="0" width="24"
          height="24">
        <path
            d="M92.4475 11.5208C92.4475 13.7994 91.7832 16.0267 90.5387 17.9212C89.2942 19.8157 87.5254 21.2923 85.4559 22.1643C83.3864 23.0362 81.1091 23.2644 78.9121 22.8198C76.7151 22.3753 74.6971 21.2781 73.1131 19.667C71.5292 18.0558 70.4505 16.0031 70.0135 13.7684C69.5765 11.5336 69.8008 9.21727 70.658 7.1122C71.5152 5.00713 72.9669 3.20789 74.8294 1.94202C76.6919 0.676146 78.8817 0.000488281 81.1217 0.000488281C84.1255 0.000488281 87.0062 1.21424 89.1302 3.37472C91.2542 5.53521 92.4475 8.46546 92.4475 11.5208Z"
            fill="white"/>
    </mask>
    <g mask="url(#mask0_1182_2247)">
        <path d="M92.4475 0.000488281H69.7959V23.0412H92.4475V0.000488281Z" fill="#0830A6"/>
        <path
            d="M92.16 14.1151C90.8937 19.6905 84.926 23.0595 78.8293 21.6225C75.9552 20.9794 73.4151 19.281 71.695 16.8521C70.8927 15.7247 70.3343 14.4372 70.0564 13.0743C69.7785 11.7115 69.7876 10.3043 70.0829 8.94529C71.3491 3.36996 77.3169 0.000912905 83.4136 1.43798C86.2877 2.08104 88.8278 3.77948 90.5479 6.20831C91.3502 7.33577 91.9086 8.62328 92.1865 9.9861C92.4643 11.3489 92.4553 12.7561 92.16 14.1151Z"
            fill="#0830A6"/>
        <path
            d="M86.6396 12.8121C87.2715 10.0235 85.3132 7.18352 82.2656 6.46897C79.218 5.75443 76.2351 7.43586 75.6032 10.2245C74.9713 13.0132 76.9296 15.8532 79.9772 16.5677C83.0248 17.2823 86.0077 15.6008 86.6396 12.8121Z"
            fill="#0830A6"/>
    </g>
</svg>
